%FSLAX24Y24*%
%MOMM*%
%SFA1B1*%

%IPPOS*%
%ADD10C,0.253999*%
%ADD11C,2.499995*%
%ADD12C,1.999996*%
%ADD13C,1.739997*%
%ADD14R,1.499997X1.499997*%
%ADD15C,1.499997*%
%ADD16R,1.999996X1.999996*%
%ADD17C,1.999996*%
%ADD18R,1.999996X1.499997*%
%ADD19O,1.999996X1.499997*%
%ADD20C,6.999986*%
%ADD21O,1.499997X2.499995*%
%ADD22R,1.499997X2.499995*%
%ADD23R,1.499997X1.999996*%
%ADD24O,1.499997X1.999996*%
%ADD25R,1.599997X2.499995*%
%ADD26R,1.999996X1.499997*%
%ADD27O,1.999996X1.499997*%
%ADD28O,1.999996X1.599997*%
%ADD29C,1.269997*%
%LNpcb1-1*%
%LPD*%
G54D10*
X276999Y583929D02*
X279069Y585999D01*
X87999Y260499D02*
X94999Y267499D01*
X237129Y251869D02*
X239999Y248999D01*
X235389Y244999D02*
X241999Y238389D01*
X235389Y251869D02*
X237129D01*
X235389Y244999D02*
Y251869D01*
X434999Y251999D02*
Y297999D01*
X260999Y145999D02*
Y148999D01*
X108639Y221579D02*
X114999Y215219D01*
X414999Y343999D02*
Y393999D01*
X406999Y335999D02*
X414999Y343999D01*
X406999Y309999D02*
Y335999D01*
Y309999D02*
X414999Y301999D01*
X-9999Y194999D02*
X-999Y185999D01*
Y0D02*
Y185999D01*
Y0D02*
X1219999D01*
X-3999Y719999D02*
X1219999D01*
X-3999Y585999D02*
Y719999D01*
X-9999Y579999D02*
X-3999Y585999D01*
X807999Y480309D02*
X823139Y495449D01*
X807999Y327999D02*
Y480309D01*
X793999Y313999D02*
X807999Y327999D01*
X195999Y598999D02*
Y629039D01*
X191999Y594999D02*
X195999Y598999D01*
X191999Y375789D02*
Y594999D01*
Y375789D02*
X195999Y371789D01*
X414999Y284099D02*
Y301999D01*
X274999Y162999D02*
X297999D01*
X260999Y148999D02*
X274999Y162999D01*
X241999Y86999D02*
Y238389D01*
X228999Y106999D02*
Y228999D01*
X297999Y162999D02*
X390999Y255999D01*
X195999Y336179D02*
Y371789D01*
Y336179D02*
X198269Y333909D01*
Y330319D02*
Y333909D01*
Y330319D02*
X198899Y329679D01*
Y321839D02*
Y329679D01*
X197599Y320539D02*
X198899Y321839D01*
X197599Y297399D02*
Y320539D01*
X89189Y399189D02*
X97499Y407499D01*
X89189Y348809D02*
X94999Y342999D01*
X89189Y348809D02*
Y399189D01*
X102999Y359999D02*
Y361999D01*
Y359999D02*
X104999Y357999D01*
Y340849D02*
Y357999D01*
X87999Y260499D02*
Y261999D01*
X235999Y244999D02*
X239999Y248999D01*
X219999Y237999D02*
X228999Y228999D01*
X219999Y237999D02*
Y249309D01*
X223809Y253119D02*
Y266519D01*
X219999Y249309D02*
X223809Y253119D01*
X219999Y270329D02*
Y274999D01*
Y270329D02*
X223809Y266519D01*
X197599Y297399D02*
X219999Y274999D01*
X821999Y317999D02*
X822999Y316999D01*
X805999D02*
X822999D01*
X530309Y178999D02*
X557309Y205999D01*
X407999Y178999D02*
X530309D01*
X376999Y147999D02*
X407999Y178999D01*
X799999Y310999D02*
X805999Y316999D01*
X799999Y296999D02*
Y310999D01*
X804839Y256009D02*
Y282159D01*
X793999Y292999D02*
X804839Y282159D01*
X793999Y292999D02*
Y313999D01*
X799999Y296999D02*
X809919Y287079D01*
Y258109D02*
Y287079D01*
X822999Y316999D02*
X825999D01*
X821999Y317999D02*
Y404999D01*
X833999Y297039D02*
Y308999D01*
X825999Y316999D02*
X833999Y308999D01*
X808999Y242999D02*
Y251849D01*
X800999Y234999D02*
X808999Y242999D01*
X800999Y218999D02*
Y234999D01*
Y218999D02*
X806999Y212999D01*
Y77759D02*
Y212999D01*
Y77759D02*
X840409Y44349D01*
X673879Y205999D02*
X676779Y203099D01*
X557309Y205999D02*
X673879D01*
X429919Y265919D02*
Y284079D01*
X421999Y291999D02*
X429919Y284079D01*
X421999Y291999D02*
Y304999D01*
X419999Y255999D02*
X429919Y265919D01*
X436999Y295999D02*
X438999D01*
X434999Y297999D02*
X436999Y295999D01*
X1122899Y89999D02*
Y379099D01*
X1068859Y433139D02*
X1122899Y379099D01*
X1068859Y433139D02*
Y435309D01*
X282809Y442919D02*
Y449829D01*
X276609Y456019D02*
X282809Y449829D01*
X276609Y456019D02*
Y465389D01*
X282809Y471589*
Y475229*
X276609Y481419D02*
X282809Y475229D01*
X276609Y481419D02*
Y490789D01*
X282809Y496989*
Y500629*
X276609Y506819D02*
X282809Y500629D01*
X276609Y506819D02*
Y516189D01*
X282809Y522389*
Y541319*
Y442919D02*
X290419Y435309D01*
X276999Y547129D02*
X282809Y541319D01*
X276999Y547129D02*
Y583929D01*
X857999Y161399D02*
X859999Y163399D01*
Y215219*
X731189Y205639D02*
Y287189D01*
X751999Y307999*
X195999Y629039D02*
X209479Y642519D01*
X428309Y311309D02*
Y324089D01*
X421999Y304999D02*
X428309Y311309D01*
X894999Y582899D02*
X895399Y582499D01*
X894999Y582899D02*
Y635000D01*
X920799Y578799D02*
X949999Y549599D01*
X920999Y578999D02*
Y628999D01*
X414999Y387999D02*
Y393999D01*
X390999Y255999D02*
X419999D01*
X327999Y144999D02*
X434999Y251999D01*
X285999Y144999D02*
X327999D01*
X821999Y404999D02*
Y405029D01*
X833999Y297039D02*
X850339Y280699D01*
X804839Y256009D02*
X808999Y251849D01*
X814079Y227819D02*
Y253949D01*
X809919Y258109D02*
X814079Y253949D01*
Y227819D02*
X814999Y226899D01*
X583399Y568999D02*
X608999Y594599D01*
X543999Y568999D02*
X583399D01*
X536999Y509619D02*
X537319Y509299D01*
X595999Y188999D02*
Y194779D01*
Y187999D02*
Y188999D01*
X428999Y85999D02*
X493999D01*
X595999Y187999*
X218999Y96999D02*
X228999Y106999D01*
X241999Y86999D02*
X245999Y82999D01*
X94999Y267499D02*
Y342999D01*
X245999Y82999D02*
X302999D01*
X308299Y88299*
X104999Y340849D02*
X108639Y337209D01*
Y221579D02*
Y337209D01*
X823139Y495449D02*
X865559D01*
X895399Y525289*
Y582499*
X728649Y203099D02*
X731189Y205639D01*
X676779Y203099D02*
X728649D01*
X814999Y260219D02*
Y303099D01*
Y260219D02*
X859999Y215219D01*
X1219999Y0D02*
Y719999D01*
X-9999Y194999D02*
Y579999D01*
X120159Y690699D02*
X117619Y693239D01*
X112539*
X109999Y690699*
Y680539*
X112539Y677999*
X117619*
X120159Y680539*
Y685619*
X115079*
X125239Y690699D02*
X127769Y693239D01*
X132849*
X135389Y690699*
Y680539*
X132849Y677999*
X127769*
X125239Y680539*
Y690699*
X140469D02*
X143009Y693239D01*
X148089*
X150629Y690699*
Y680539*
X148089Y677999*
X143009*
X140469Y680539*
Y690699*
X155709D02*
X158239Y693239D01*
X163319*
X165859Y690699*
Y688159*
X163319Y685619*
X160779*
X163319*
X165859Y683079*
Y680539*
X163319Y677999*
X158239*
X155709Y680539*
X170939Y690699D02*
X173479Y693239D01*
X178559*
X181099Y690699*
Y680539*
X178559Y677999*
X173479*
X170939Y680539*
Y690699*
X196329Y677999D02*
X186179D01*
X196329Y688159*
Y690699*
X193789Y693239*
X188709*
X186179Y690699*
X209029Y677999D02*
Y693239D01*
X201409Y685619*
X211569*
X216649Y690699D02*
X219179Y693239D01*
X224259*
X226799Y690699*
Y680539*
X224259Y677999*
X219179*
X216649Y680539*
Y690699*
X231879D02*
X234419Y693239D01*
X239499*
X242039Y690699*
Y680539*
X239499Y677999*
X234419*
X231879Y680539*
Y690699*
X109999Y715229D02*
Y699999D01*
X117619*
X120159Y702539*
Y705079*
X117619Y707619*
X109999*
X117619*
X120159Y710159*
Y712699*
X117619Y715229*
X109999*
X125239Y710159D02*
Y699999D01*
Y705079*
X127769Y707619*
X130309Y710159*
X132849*
X148089Y699999D02*
X143009D01*
X140469Y702539*
Y707619*
X143009Y710159*
X148089*
X150629Y707619*
Y705079*
X140469*
X155709Y699999D02*
Y710159D01*
X163319*
X165859Y707619*
Y699999*
X181099Y715229D02*
Y699999D01*
X173479*
X170939Y702539*
Y707619*
X173479Y710159*
X181099*
X188709D02*
X193789D01*
X196329Y707619*
Y699999*
X188709*
X186179Y702539*
X188709Y705079*
X196329*
X201409Y699999D02*
Y710159D01*
X209029*
X211569Y707619*
Y699999*
X242039Y712699D02*
X239499Y715229D01*
X234419*
X231879Y712699*
Y710159*
X234419Y707619*
X239499*
X242039Y705079*
Y702539*
X239499Y699999*
X234419*
X231879Y702539*
X257269Y710159D02*
X249649D01*
X247119Y707619*
Y702539*
X249649Y699999*
X257269*
X262349Y710159D02*
Y702539D01*
X264889Y699999*
X272509*
Y710159*
X277589Y699999D02*
X282659D01*
X280129*
Y715229*
X277589*
X290279Y699999D02*
X295359D01*
X292819*
Y715229*
X290279*
X302979Y699999D02*
X308059D01*
X305519*
Y710159*
X302979*
X318209Y699999D02*
X323289D01*
X325829Y702539*
Y707619*
X323289Y710159*
X318209*
X315669Y707619*
Y702539*
X318209Y699999*
X330909D02*
Y710159D01*
X338529*
X341069Y707619*
Y699999*
X134989Y59989D02*
X129999Y64989D01*
X119999*
X114999Y59989*
Y39999*
X119999Y34999*
X129999*
X134989Y39999*
Y49999*
X124999*
X149989Y54989D02*
X159989D01*
X164979Y49999*
Y34999*
X149989*
X144989Y39999*
X149989Y44999*
X164979*
X174979Y34999D02*
X184979D01*
X179979*
Y64989*
X174979*
X199969Y34999D02*
X209969D01*
X204969*
Y54989*
X199969*
X224959Y34999D02*
X234959D01*
X229959*
Y64989*
X224959*
X264949Y34999D02*
X254949D01*
X249959Y39999*
Y49999*
X254949Y54989*
X264949*
X269949Y49999*
Y44999*
X249959*
X284939Y34999D02*
X294939D01*
X299939Y39999*
Y49999*
X294939Y54989*
X284939*
X279949Y49999*
Y39999*
X284939Y34999*
X359919Y59989D02*
X354919Y64989D01*
X344929*
X339929Y59989*
Y39999*
X344929Y34999*
X354919*
X359919Y39999*
X369919Y34999D02*
Y64989D01*
X389909Y34999*
Y64989*
X419899Y59989D02*
X414899Y64989D01*
X404909*
X399909Y59989*
Y39999*
X404909Y34999*
X414899*
X419899Y39999*
X519869Y64989D02*
Y44999D01*
X529869Y34999*
X539859Y44999*
Y64989*
X549859Y59989D02*
X554859Y64989D01*
X564849*
X569849Y59989*
Y39999*
X564849Y34999*
X554859*
X549859Y39999*
Y59989*
X579849Y34999D02*
Y39999D01*
X584849*
Y34999*
X579849*
X604839D02*
X614839D01*
X609839*
Y64989*
X604839Y59989*
X-999Y0D02*
Y185999D01*
X-9999Y194999D02*
X-999Y185999D01*
X-9999Y194999D02*
Y579999D01*
X-3999Y585999*
Y719999*
X1219999*
Y0D02*
Y719999D01*
X-999Y0D02*
X1219999D01*
G54D11*
X1162489Y104189D02*
Y502309D01*
X1029149Y105039D02*
Y254149D01*
X649189Y360429D02*
Y371809D01*
X388999Y290089D02*
Y407999D01*
X409999Y428999*
X273249Y242749D02*
X286999Y228999D01*
X789999Y337459D02*
Y481669D01*
X327909Y228999D02*
X388999Y290089D01*
X214579Y337069D02*
Y355739D01*
Y337069D02*
X215209Y336439D01*
Y315079D02*
Y336439D01*
X214999Y314869D02*
X215209Y315079D01*
X273249Y242749D02*
Y243159D01*
X254999Y261409D02*
X273249Y243159D01*
X254999Y261409D02*
Y269999D01*
X286999Y228999D02*
X327909D01*
X1086999Y610999D02*
X1121999D01*
X1039999Y563999D02*
X1086999Y610999D01*
X1039999Y549599D02*
Y563999D01*
X1139999Y546249D02*
Y592999D01*
X1121999Y610999D02*
X1139999Y592999D01*
X741369Y337459D02*
X773999D01*
Y273319D02*
Y337459D01*
Y273319D02*
X778839Y268479D01*
X1145999Y73749D02*
Y87699D01*
X1129809Y57559D02*
X1145999Y73749D01*
X1076629Y57559D02*
X1129809D01*
X1145999Y87699D02*
X1148299Y89999D01*
X1043249Y271749D02*
Y359499D01*
X1030939Y371809D02*
X1043249Y359499D01*
X1018059Y371809D02*
X1030939D01*
X1043249Y271749D02*
X1044999Y269999D01*
X214999Y356159D02*
Y362289D01*
X214579Y355739D02*
X214999Y356159D01*
Y309999D02*
Y314869D01*
Y362289D02*
X224519Y371809D01*
X214999Y309999D02*
X254999Y269999D01*
X653789Y304419D02*
X704539Y300639D01*
X653789Y304419D02*
X653999Y304639D01*
X649999Y300639D02*
X653789Y304419D01*
X649999Y269999D02*
X653789Y304419D01*
X653879Y344449D02*
X653999Y344329D01*
X653879Y344449D02*
Y355739D01*
X649189Y360429D02*
X653879Y355739D01*
X653999Y304639D02*
Y344329D01*
X628839Y371809D02*
X649189D01*
X208999Y587999D02*
X210999Y585999D01*
Y379859D02*
Y585999D01*
Y379859D02*
X219049Y371809D01*
X409999Y428999D02*
Y475999D01*
X1139999Y546249D02*
X1161999Y524249D01*
X371999Y513999D02*
X409999Y475999D01*
X1029149Y105039D02*
X1076629Y57559D01*
X1161999Y501999D02*
Y524249D01*
X778839Y337459D02*
X789999D01*
X219049Y371809D02*
X224519D01*
X239619*
X1018979Y254149D02*
X1029149D01*
X649999Y269999D02*
Y300639D01*
X704539D02*
X741369Y337459D01*
X1029149Y254149D02*
X1044999Y269999D01*
X1148299Y89999D02*
X1162489Y104189D01*
G54D12*
X83999Y228449D02*
X88999Y233449D01*
X693789Y180709D02*
X738559D01*
X685999Y172919D02*
X693789Y180709D01*
X685999Y79999D02*
Y172919D01*
X247099Y557499D02*
X262799Y541799D01*
Y432189D02*
Y541799D01*
X253219Y422609D02*
X262799Y432189D01*
X114999Y169599D02*
Y178999D01*
X83999Y209999D02*
X114999Y178999D01*
X83999Y209999D02*
Y228449D01*
X88999Y232999D02*
Y233449D01*
X949999Y600399D02*
X977999Y572399D01*
Y536999D02*
Y572399D01*
X950539Y509539D02*
X977999Y536999D01*
X674999Y68999D02*
X685999Y79999D01*
X950539Y318539D02*
Y509539D01*
X993019Y329899D02*
X1002469Y320449D01*
X993019Y329899D02*
Y408919D01*
X949999Y302999D02*
Y315999D01*
X948999Y316999D02*
X949999Y315999D01*
X1006709Y422609D02*
X1018059D01*
X993019Y408919D02*
X1006709Y422609D01*
X948999Y316999D02*
X950539Y318539D01*
X565999Y423999D02*
Y524999D01*
Y305999D02*
Y423999D01*
X517999Y557999D02*
Y616999D01*
Y557999D02*
X519999Y559999D01*
X496999Y536999D02*
X517999Y557999D01*
X565799Y524999D02*
X565999D01*
X552339Y538459D02*
X565799Y524999D01*
X520459Y551659D02*
Y559539D01*
X519999Y559999D02*
X520459Y559539D01*
X533659Y538459D02*
X552339D01*
X520459Y551659D02*
X533659Y538459D01*
X492999Y641999D02*
X517999Y616999D01*
X247099Y557499D02*
X248999Y559399D01*
Y585999*
X209999Y159199D02*
Y215799D01*
X738559Y180709D02*
X749999Y192149D01*
Y213099*
X679999Y253099D02*
X714999Y218099D01*
X679999Y253099D02*
Y269999D01*
X1097499Y89999D02*
Y168559D01*
X1074999Y191059D02*
X1097499Y168559D01*
X1074999Y191059D02*
Y269999D01*
X239619Y422609D02*
X253219D01*
X1175599Y557499D02*
Y582499D01*
G54D13*
X53849Y534999D02*
X137499D01*
X49429Y539429D02*
X53849Y534999D01*
X173999Y257799D02*
X185089Y268889D01*
X166999Y250799D02*
X173999Y257799D01*
X134999Y250799D02*
X166999D01*
X167309Y182309D02*
Y214309D01*
X132999Y147999D02*
X167309Y182309D01*
X91719Y147999D02*
X132999D01*
X53999Y185719D02*
X91719Y147999D01*
X745929Y362359D02*
X760569Y376999D01*
X723829Y362359D02*
X745929D01*
X174999Y496999D02*
Y500089D01*
X178739Y503839*
Y600739*
X177999Y329999D02*
X182649D01*
X185089Y327559*
Y268889D02*
Y327559D01*
X124999Y260799D02*
Y421309D01*
X113209Y433099D02*
X124999Y421309D01*
Y260799D02*
X134999Y250799D01*
X94399Y433099D02*
X113209D01*
X897819Y458499D02*
X901999Y454319D01*
Y270999D02*
Y454319D01*
Y270999D02*
X972199Y200799D01*
X878999Y251799D02*
Y426369D01*
Y251799D02*
X929999Y200799D01*
X209999Y256999D02*
Y260799D01*
X167309Y214309D02*
X209999Y256999D01*
X972199Y200799D02*
X984999D01*
X39999Y348999D02*
X49999Y338999D01*
Y263999D02*
Y338999D01*
Y263999D02*
X53999Y259999D01*
X39999Y348999D02*
Y444999D01*
X53999Y185719D02*
Y259999D01*
X991289Y517549D02*
X1062819D01*
X991289Y440549D02*
Y517549D01*
X181239Y603239D02*
Y633759D01*
X178739Y600739D02*
X181239Y603239D01*
X178739Y636259D02*
X181239Y633759D01*
X178739Y636259D02*
Y646839D01*
X398999Y671999D02*
X418999Y651999D01*
Y539999D02*
Y651999D01*
Y539999D02*
X426999Y531999D01*
X309049Y314859D02*
X357999Y363809D01*
X489999Y254049D02*
Y415089D01*
Y254049D02*
X523249Y220799D01*
X561999Y268999D02*
X590659D01*
X594029Y517549*
X589999Y220799D02*
X590659Y268999D01*
X541999Y248999D02*
X561999Y268999D01*
X539999Y248999D02*
X541999D01*
X523249Y220799D02*
X549999D01*
X39999Y444999D02*
X52499Y457499D01*
X1103319Y215799D02*
Y299249D01*
X1068859Y333709D02*
X1103319Y299249D01*
X971779Y214019D02*
X984999Y200799D01*
X971779Y214019D02*
Y421039D01*
X991289Y440549*
X1062819Y517549D02*
X1068859Y511509D01*
X695179Y333709D02*
X723829Y362359D01*
X679639Y333709D02*
X695179D01*
X594029Y517549D02*
X673599D01*
X679639Y511509*
X239619Y346409D02*
X271169Y314859D01*
X309049*
G54D14*
X724599Y21899D03*
G54D15*
X749999Y21899D03*
X775399D03*
X724599Y98099D03*
X749999D03*
X775399D03*
G54D16*
X257499Y122499D03*
X212499Y612499D03*
G54D17*
X282899Y122499D03*
X333699D03*
X359099D03*
X384499D03*
X409899D03*
X435299D03*
X460699D03*
X486099D03*
X308299D03*
X649999Y269999D03*
X679999D03*
X254999D03*
X284999D03*
X857999Y161399D03*
Y110599D03*
X608999Y645399D03*
Y594599D03*
X645999Y645399D03*
Y594599D03*
X211699Y122499D03*
X186299D03*
X160899D03*
X135499D03*
X110099D03*
X84699D03*
X59299D03*
X929999Y200799D03*
Y99199D03*
X984999Y200799D03*
Y99199D03*
X1175599Y582499D03*
X1099399D03*
X814999Y303099D03*
Y226899D03*
X27999Y241899D03*
Y318099D03*
X749999Y136899D03*
Y213099D03*
X784999Y136899D03*
Y213099D03*
X247099Y557499D03*
X297899D03*
X84599Y559999D03*
X135399D03*
X390299Y612499D03*
X364899D03*
X339499D03*
X314099D03*
X288699D03*
X263299D03*
X237899D03*
X32999D03*
X58399D03*
X83799D03*
X109199D03*
X134599D03*
X159999D03*
X114999Y220399D03*
Y169599D03*
X173999Y257799D03*
Y156199D03*
X209999Y260799D03*
Y159199D03*
X414999Y201899D03*
Y278099D03*
X489999Y215219D03*
Y164419D03*
X549999Y220799D03*
Y119199D03*
X589999Y220799D03*
Y119199D03*
X714999Y141899D03*
Y218099D03*
X1044999Y269999D03*
X1074999D03*
X949999Y600399D03*
Y549599D03*
X1039999Y600399D03*
Y549599D03*
X1117099Y641999D03*
X1040899D03*
X1117099Y666999D03*
X1040899D03*
X1175599Y557499D03*
X1099399D03*
X760569Y376999D03*
X174999Y496999D03*
X258999Y147999D03*
X177999Y329999D03*
X102999Y361999D03*
X87999Y261999D03*
X88999Y232999D03*
X235999Y244999D03*
X248999Y585999D03*
X438999Y295999D03*
X398999Y671999D03*
X357999Y363999D03*
X414999Y393999D03*
X949999Y302999D03*
X674999Y68999D03*
X894999Y635000D03*
X920999Y628999D03*
X878999Y426369D03*
X891999Y458499D03*
X821999Y404999D03*
X428309Y324089D03*
X1161999Y501999D03*
X789999Y481999D03*
X543999Y568999D03*
X565999Y305999D03*
Y423999D03*
X496999Y536999D03*
X492999Y641999D03*
X489999Y421999D03*
X376999Y147999D03*
X428999Y85999D03*
X308299Y88299D03*
X209479Y642519D03*
X205999Y587999D03*
X371999Y513999D03*
X275999Y585999D03*
X218999Y96999D03*
X284999Y147999D03*
X539999Y248999D03*
X595999Y188999D03*
X97499Y407499D03*
X94399Y433099D03*
X49429Y539429D03*
X137499Y534999D03*
X52499Y457499D03*
X778839Y268479D03*
X1018979Y254149D03*
X1103319Y215799D03*
X840409Y44349D03*
X895399Y582499D03*
X178739Y646839D03*
X426999Y530999D03*
X209999Y215799D03*
X1002469Y320449D03*
G54D18*
X926539Y280699D03*
X148099D03*
X537319D03*
G54D19*
X926539Y306099D03*
Y331499D03*
Y356899D03*
Y382299D03*
Y407699D03*
Y433099D03*
Y458499D03*
Y483899D03*
Y509299D03*
X850339Y280699D03*
Y306099D03*
Y331499D03*
Y356899D03*
Y382299D03*
Y407699D03*
Y433099D03*
Y458499D03*
Y483899D03*
Y509299D03*
X148099Y306099D03*
Y331499D03*
Y356899D03*
Y382299D03*
Y407699D03*
Y433099D03*
Y458499D03*
Y483899D03*
Y509299D03*
X71899Y331499D03*
Y356899D03*
Y382299D03*
Y407699D03*
Y433099D03*
Y458499D03*
Y483899D03*
Y509299D03*
X537319Y306099D03*
Y331499D03*
Y356899D03*
Y382299D03*
Y407699D03*
Y433099D03*
Y458499D03*
Y483899D03*
Y509299D03*
X461119Y280699D03*
Y306099D03*
Y331499D03*
Y356899D03*
Y382299D03*
Y407699D03*
Y433099D03*
Y458499D03*
Y483899D03*
Y509299D03*
G54D20*
X49999Y669999D03*
X1169999D03*
X49999Y49999D03*
G54D21*
X1148299Y89999D03*
X1122899D03*
G54D22*
X1097499Y89999D03*
G54D23*
X747499Y664999D03*
X869999D03*
G54D24*
X772899Y664999D03*
X798299D03*
X823699D03*
X895399D03*
X920799D03*
X946199D03*
G54D25*
X33899Y122499D03*
G54D26*
X336999Y410999D03*
X1114999Y410699D03*
X1068859Y333709D03*
X740999Y409999D03*
X290419Y333709D03*
X679639D03*
G54D27*
X336999Y436399D03*
Y461799D03*
Y487199D03*
Y512599D03*
X1114999Y436099D03*
Y461499D03*
Y486899D03*
Y512299D03*
X1018059Y422609D03*
X1068859Y435309D03*
X1018059Y448009D03*
X1068859Y460709D03*
X1018059Y346409D03*
X1068859Y359109D03*
X1018059Y371809D03*
X1068859Y384509D03*
X1018059Y397209D03*
X1068859Y409909D03*
X1018059Y473409D03*
X1068859Y486109D03*
X1018059Y498809D03*
X1068859Y511509D03*
X740999Y435399D03*
Y460799D03*
Y486199D03*
Y511599D03*
X239619Y422609D03*
X290419Y435309D03*
X239619Y448009D03*
X290419Y460709D03*
X239619Y346409D03*
X290419Y359109D03*
X239619Y371809D03*
X290419Y384509D03*
X239619Y397209D03*
X290419Y409909D03*
X239619Y473409D03*
X290419Y486109D03*
X239619Y498809D03*
X290419Y511509D03*
X628839Y422609D03*
X679639Y435309D03*
X628839Y448009D03*
X679639Y460709D03*
X628839Y346409D03*
X679639Y359109D03*
X628839Y371809D03*
X679639Y384509D03*
X628839Y397209D03*
X679639Y409909D03*
X628839Y473409D03*
X679639Y486109D03*
X628839Y498809D03*
X679639Y511509D03*
G54D28*
X71899Y280699D03*
Y306099D03*
G54D29*
X751999Y307999D03*
M02*