%FSLAX24Y24*%
%MOMM*%
%SFA1B1*%

%IPPOS*%
%ADD10C,0.253999*%
%ADD33C,0.200000*%
%ADD34C,0.250000*%
%ADD35C,0.599999*%
%ADD36C,0.150000*%
%ADD37C,0.100000*%
%LNpcb1-1*%
%LPD*%
G54D10*
X714759Y126849D02*
X712219Y129389D01*
X707139*
X704599Y126849*
Y124309*
X707139Y121779*
X712219*
X714759Y119239*
Y116699*
X712219Y114159*
X707139*
X704599Y116699*
X719839Y114159D02*
X724919D01*
X722379*
Y129389*
X719839Y126849*
X243999Y140999D02*
Y156239D01*
X251619*
X254159Y153699*
Y148619*
X251619Y146079*
X243999*
X259239Y140999D02*
X264309D01*
X261769*
Y156239*
X259239Y153699*
X844369Y548789D02*
Y536099D01*
X846909Y533559*
X851989*
X854519Y536099*
Y548789*
X869759D02*
X859599D01*
Y541169*
X864679Y543709*
X867219*
X869759Y541169*
Y536099*
X867219Y533559*
X862139*
X859599Y536099*
X638759Y698349D02*
X636219Y700889D01*
X631139*
X628599Y698349*
Y688199*
X631139Y685659*
X636219*
X638759Y688199*
X643839Y685659D02*
X648909D01*
X646379*
Y700889*
X643839Y698349*
X601759D02*
X599219Y700889D01*
X594139*
X591599Y698349*
Y688199*
X594139Y685659*
X599219*
X601759Y688199*
X616989Y685659D02*
X606839D01*
X616989Y695819*
Y698349*
X614449Y700889*
X609379*
X606839Y698349*
X270159Y562699D02*
X267619Y565239D01*
X262539*
X259999Y562699*
Y552539*
X262539Y549999*
X267619*
X270159Y552539*
X275239Y562699D02*
X277769Y565239D01*
X282849*
X285389Y562699*
Y560159*
X282849Y557619*
X280309*
X282849*
X285389Y555079*
Y552539*
X282849Y549999*
X277769*
X275239Y552539*
X105159Y562699D02*
X102619Y565239D01*
X97539*
X94999Y562699*
Y552539*
X97539Y549999*
X102619*
X105159Y552539*
X117849Y549999D02*
Y565239D01*
X110239Y557619*
X120389*
X265159Y297699D02*
X262619Y300239D01*
X257539*
X254999Y297699*
Y287539*
X257539Y284999*
X262619*
X265159Y287539*
X280389Y300239D02*
X270239D01*
Y292619*
X275309Y295159*
X277849*
X280389Y292619*
Y287539*
X277849Y284999*
X272769*
X270239Y287539*
X459799Y187659D02*
X457259Y185119D01*
Y180039*
X459799Y177499*
X469959*
X472499Y180039*
Y185119*
X469959Y187659*
X457259Y202889D02*
X459799Y197809D01*
X464879Y192739*
X469959*
X472499Y195269*
Y200349*
X469959Y202889*
X467419*
X464879Y200349*
Y192739*
X665159Y292699D02*
X662619Y295239D01*
X657539*
X654999Y292699*
Y282539*
X657539Y279999*
X662619*
X665159Y282539*
X670239Y295239D02*
X680389D01*
Y292699*
X670239Y282539*
Y279999*
X1009799Y572659D02*
X1007259Y570119D01*
Y565039*
X1009799Y562499*
X1019959*
X1022499Y565039*
Y570119*
X1019959Y572659*
X1009799Y577739D02*
X1007259Y580269D01*
Y585349*
X1009799Y587889*
X1012339*
X1014879Y585349*
X1017419Y587889*
X1019959*
X1022499Y585349*
Y580269*
X1019959Y577739*
X1017419*
X1014879Y580269*
X1012339Y577739*
X1009799*
X1014879Y580269D02*
Y585349D01*
X84799Y192839D02*
X82259Y190299D01*
Y185219*
X84799Y182679*
X94959*
X97499Y185219*
Y190299*
X94959Y192839*
Y197919D02*
X97499Y200459D01*
Y205539*
X94959Y208079*
X84799*
X82259Y205539*
Y200459*
X84799Y197919*
X87339*
X89879Y200459*
Y208079*
X919799Y570159D02*
X917259Y567619D01*
Y562539*
X919799Y559999*
X929959*
X932499Y562539*
Y567619*
X929959Y570159*
X932499Y575239D02*
Y580309D01*
Y577769*
X917259*
X919799Y575239*
Y587929D02*
X917259Y590469D01*
Y595549*
X919799Y598089*
X929959*
X932499Y595549*
Y590469*
X929959Y587929*
X919799*
X1055159Y297699D02*
X1052619Y300239D01*
X1047539*
X1044999Y297699*
Y287539*
X1047539Y284999*
X1052619*
X1055159Y287539*
X1060239Y284999D02*
X1065309D01*
X1062769*
Y300239*
X1060239Y297699*
X1072929Y284999D02*
X1078009D01*
X1075469*
Y300239*
X1072929Y297699*
X857179Y195289D02*
X854639Y197829D01*
X849559*
X847019Y195289*
Y185129*
X849559Y182589*
X854639*
X857179Y185129*
X862259Y182589D02*
X867339D01*
X864799*
Y197829*
X862259Y195289*
X885109Y182589D02*
X874949D01*
X885109Y192749*
Y195289*
X882569Y197829*
X877489*
X874949Y195289*
X325769Y533919D02*
Y549159D01*
X333389*
X335929Y546619*
Y541539*
X333389Y538999*
X325769*
X351169Y533919D02*
X341009D01*
X351169Y544079*
Y546619*
X348629Y549159*
X343549*
X341009Y546619*
X729949Y532809D02*
Y548039D01*
X737569*
X740109Y545499*
Y540429*
X737569Y537889*
X729949*
X745189Y545499D02*
X747729Y548039D01*
X752799*
X755339Y545499*
Y542969*
X752799Y540429*
X750259*
X752799*
X755339Y537889*
Y535349*
X752799Y532809*
X747729*
X745189Y535349*
X22679Y143689D02*
Y158929D01*
X30289*
X32829Y156389*
Y151309*
X30289Y148769*
X22679*
X45529Y143689D02*
Y158929D01*
X37909Y151309*
X48069*
X1103949Y533509D02*
Y548739D01*
X1111569*
X1114109Y546199*
Y541129*
X1111569Y538589*
X1103949*
X1129339Y548739D02*
X1119189D01*
Y541129*
X1124259Y543669*
X1126799*
X1129339Y541129*
Y536049*
X1126799Y533509*
X1121729*
X1119189Y536049*
X736329Y686299D02*
Y701539D01*
X743949*
X746489Y698999*
Y693919*
X743949Y691379*
X736329*
X761719Y701539D02*
X756639Y698999D01*
X751559Y693919*
Y688839*
X754099Y686299*
X759179*
X761719Y688839*
Y691379*
X759179Y693919*
X751559*
X858829Y686399D02*
Y701629D01*
X866439*
X868979Y699089*
Y694009*
X866439Y691469*
X858829*
X874059Y701629D02*
X884219D01*
Y699089*
X874059Y688939*
Y686399*
X1086349Y111219D02*
Y126449D01*
X1093969*
X1096509Y123909*
Y118839*
X1093969Y116299*
X1086349*
X1101589Y123909D02*
X1104119Y126449D01*
X1109199*
X1111739Y123909*
Y121369*
X1109199Y118839*
X1111739Y116299*
Y113759*
X1109199Y111219*
X1104119*
X1101589Y113759*
Y116299*
X1104119Y118839*
X1101589Y121369*
Y123909*
X1104119Y118839D02*
X1109199D01*
X702499Y182499D02*
X687259D01*
Y190119*
X689799Y192659*
X694879*
X697419Y190119*
Y182499*
Y187579D02*
X702499Y192659D01*
Y197739D02*
Y202809D01*
Y200269*
X687259*
X689799Y197739*
X744029Y228719D02*
Y243959D01*
X751649*
X754189Y241419*
Y236339*
X751649Y233799*
X744029*
X749109D02*
X754189Y228719D01*
X769419D02*
X759269D01*
X769419Y238879*
Y241419*
X766879Y243959*
X761809*
X759269Y241419*
X779029Y228719D02*
Y243959D01*
X786649*
X789189Y241419*
Y236339*
X786649Y233799*
X779029*
X784109D02*
X789189Y228719D01*
X794269Y241419D02*
X796809Y243959D01*
X801879*
X804419Y241419*
Y238879*
X801879Y236339*
X799339*
X801879*
X804419Y233799*
Y231259*
X801879Y228719*
X796809*
X794269Y231259*
X402499Y227499D02*
X387259D01*
Y235119*
X389799Y237659*
X394879*
X397419Y235119*
Y227499*
Y232579D02*
X402499Y237659D01*
Y250349D02*
X387259D01*
X394879Y242739*
Y252889*
X21819Y333819D02*
Y349049D01*
X29439*
X31969Y346509*
Y341429*
X29439Y338889*
X21819*
X26899D02*
X31969Y333819D01*
X47209Y349049D02*
X37049D01*
Y341429*
X42129Y343969*
X44669*
X47209Y341429*
Y336359*
X44669Y333819*
X39589*
X37049Y336359*
X196999Y197999D02*
X181759D01*
Y205619*
X184299Y208159*
X189379*
X191919Y205619*
Y197999*
Y203079D02*
X196999Y208159D01*
X181759Y223389D02*
X184299Y218309D01*
X189379Y213239*
X194459*
X196999Y215769*
Y220849*
X194459Y223389*
X191919*
X189379Y220849*
Y213239*
X156999Y194999D02*
X141759D01*
Y202619*
X144299Y205159*
X149379*
X151919Y202619*
Y194999*
Y200079D02*
X156999Y205159D01*
X141759Y210239D02*
Y220389D01*
X144299*
X154459Y210239*
X156999*
X577499Y174999D02*
X562259D01*
Y182619*
X564799Y185159*
X569879*
X572419Y182619*
Y174999*
Y180079D02*
X577499Y185159D01*
X564799Y190239D02*
X562259Y192769D01*
Y197849*
X564799Y200389*
X567339*
X569879Y197849*
X572419Y200389*
X574959*
X577499Y197849*
Y192769*
X574959Y190239*
X572419*
X569879Y192769*
X567339Y190239*
X564799*
X569879Y192769D02*
Y197849D01*
X534999Y174999D02*
X519759D01*
Y182619*
X522299Y185159*
X527379*
X529919Y182619*
Y174999*
Y180079D02*
X534999Y185159D01*
X532459Y190239D02*
X534999Y192769D01*
Y197849*
X532459Y200389*
X522299*
X519759Y197849*
Y192769*
X522299Y190239*
X524839*
X527379Y192769*
Y200389*
X808949Y318659D02*
Y333889D01*
X816559*
X819099Y331349*
Y326269*
X816559Y323729*
X808949*
X814019D02*
X819099Y318659D01*
X824179D02*
X829259D01*
X826719*
Y333889*
X824179Y331349*
X836879D02*
X839419Y333889D01*
X844489*
X847029Y331349*
Y321199*
X844489Y318659*
X839419*
X836879Y321199*
Y331349*
X1026499Y634499D02*
X1011259D01*
Y642119*
X1013799Y644659*
X1018879*
X1021419Y642119*
Y634499*
Y639579D02*
X1026499Y644659D01*
Y649739D02*
Y654809D01*
Y652269*
X1011259*
X1013799Y649739*
X1026499Y662429D02*
Y667509D01*
Y664969*
X1011259*
X1013799Y662429*
X1093949Y598739D02*
Y613969D01*
X1101559*
X1104099Y611439*
Y606359*
X1101559Y603819*
X1093949*
X1099019D02*
X1104099Y598739D01*
X1109179D02*
X1114259D01*
X1111719*
Y613969*
X1109179Y611439*
X1132029Y598739D02*
X1121879D01*
X1132029Y608899*
Y611439*
X1129489Y613969*
X1124419*
X1121879Y611439*
X976489Y216419D02*
Y231659D01*
X984109*
X986649Y229119*
Y224039*
X984109Y221499*
X976489*
X981569D02*
X986649Y216419D01*
X991729D02*
X996799D01*
X994269*
Y231659*
X991729Y229119*
X1004419D02*
X1006959Y231659D01*
X1012039*
X1014579Y229119*
Y226579*
X1012039Y224039*
X1009499*
X1012039*
X1014579Y221499*
Y218959*
X1012039Y216419*
X1006959*
X1004419Y218959*
X1087499Y539999D02*
X1072259D01*
Y547619*
X1074799Y550159*
X1079879*
X1082419Y547619*
Y539999*
Y545079D02*
X1087499Y550159D01*
Y555239D02*
Y560309D01*
Y557769*
X1072259*
X1074799Y555239*
X1087499Y575549D02*
X1072259D01*
X1079879Y567929*
Y578089*
X921489Y216419D02*
Y231659D01*
X929109*
X931649Y229119*
Y224039*
X929109Y221499*
X921489*
X926569D02*
X931649Y216419D01*
X936729D02*
X941799D01*
X939269*
Y231659*
X936729Y229119*
X959579Y231659D02*
X949419D01*
Y224039*
X954499Y226579*
X957039*
X959579Y224039*
Y218959*
X957039Y216419*
X951959*
X949419Y218959*
X1051499Y679499D02*
Y694739D01*
X1059119*
X1061659Y692199*
Y687119*
X1059119Y684579*
X1051499*
X1056579D02*
X1061659Y679499D01*
X1066739D02*
X1071809D01*
X1069269*
Y694739*
X1066739Y692199*
X1089589Y694739D02*
X1084509Y692199D01*
X1079429Y687119*
Y682039*
X1081969Y679499*
X1087049*
X1089589Y682039*
Y684579*
X1087049Y687119*
X1079429*
X44759Y497499D02*
X57459D01*
X59999Y500039*
Y505119*
X57459Y507659*
X44759*
X59999Y512739D02*
Y517809D01*
Y515269*
X44759*
X47299Y512739*
X172259Y494999D02*
X184959D01*
X187499Y497539*
Y502619*
X184959Y505159*
X172259*
X187499Y520389D02*
Y510239D01*
X177339Y520389*
X174799*
X172259Y517849*
Y512769*
X174799Y510239*
X429759Y489999D02*
X442459D01*
X444999Y492539*
Y497619*
X442459Y500159*
X429759*
X432299Y505239D02*
X429759Y507769D01*
Y512849*
X432299Y515389*
X434839*
X437379Y512849*
Y510309*
Y512849*
X439919Y515389*
X442459*
X444999Y512849*
Y507769*
X442459Y505239*
X564759Y494999D02*
X577459D01*
X579999Y497539*
Y502619*
X577459Y505159*
X564759*
X579999Y517849D02*
X564759D01*
X572379Y510239*
Y520389*
X973989Y548969D02*
Y536269D01*
X976529Y533729*
X981609*
X984149Y536269*
Y548969*
X999379D02*
X994299Y546429D01*
X989229Y541349*
Y536269*
X991769Y533729*
X996839*
X999379Y536269*
Y538809*
X996839Y541349*
X989229*
X17499Y599999D02*
X2259D01*
Y607619*
X4799Y610159*
X9879*
X12419Y607619*
Y599999*
X14959Y615239D02*
X17499Y617769D01*
Y622849*
X14959Y625389*
X4799*
X2259Y622849*
Y617769*
X4799Y615239*
X7339*
X9879Y617769*
Y625389*
X197499Y594999D02*
X182259D01*
Y602619*
X184799Y605159*
X189879*
X192419Y602619*
Y594999*
X197499Y610239D02*
Y615309D01*
Y612769*
X182259*
X184799Y610239*
Y622929D02*
X182259Y625469D01*
Y630549*
X184799Y633089*
X194959*
X197499Y630549*
Y625469*
X194959Y622929*
X184799*
X39999Y79999D02*
X24759D01*
Y87619*
X27299Y90159*
X32379*
X34919Y87619*
Y79999*
Y85079D02*
X39999Y90159D01*
X29839Y95239D02*
X39999Y105389D01*
X34919Y100309*
X29839Y105389*
X39999Y95239*
X49759Y79999D02*
Y90159D01*
Y85079*
X64999*
X54839Y95239D02*
X64999Y105389D01*
X59919Y100309*
X54839Y105389*
X64999Y95239*
X404799Y150159D02*
X402259Y147619D01*
Y142539*
X404799Y139999*
X414959*
X417499Y142539*
Y147619*
X414959Y150159*
X409879*
Y145079*
X417499Y155239D02*
X402259D01*
X417499Y165389*
X402259*
Y170469D02*
X417499D01*
Y178089*
X414959Y180629*
X404799*
X402259Y178089*
Y170469*
X-999Y0D02*
Y185999D01*
X-9999Y194999D02*
X-999Y185999D01*
X-9999Y194999D02*
Y579999D01*
X-3999Y585999*
Y719999*
X1219999*
Y0D02*
Y719999D01*
X-999Y0D02*
X1219999D01*
G54D33*
X702999Y53649D02*
D01*
X703442Y53665*
X703883Y53711*
X704320Y53788*
X704750Y53895*
X705171Y54032*
X705582Y54198*
X705981Y54393*
X706364Y54614*
X706732Y54862*
X707081Y55135*
X707410Y55431*
X707718Y55750*
X708003Y56090*
X708264Y56448*
X708499Y56824*
X708707Y57216*
X708887Y57621*
X709038Y58037*
X709161Y58463*
X709253Y58897*
X709315Y59336*
X709346Y59778*
Y60221*
X709315Y60663*
X709253Y61102*
X709161Y61536*
X709038Y61962*
X708887Y62378*
X708707Y62783*
X708499Y63174*
X708264Y63550*
X708003Y63909*
X707718Y64248*
X707410Y64567*
X707081Y64864*
X706732Y65137*
X706364Y65384*
X705981Y65606*
X705582Y65800*
X705171Y65966*
X704750Y66104*
X704320Y66211*
X703883Y66288*
X703442Y66334*
X702999Y66349*
X894789Y264999D02*
D01*
X894774Y265442*
X894727Y265883*
X894650Y266320*
X894543Y266750*
X894406Y267171*
X894240Y267582*
X894046Y267980*
X893824Y268364*
X893577Y268732*
X893304Y269081*
X893007Y269410*
X892688Y269718*
X892349Y270003*
X891990Y270264*
X891614Y270499*
X891223Y270707*
X890818Y270887*
X890402Y271039*
X889976Y271161*
X889542Y271253*
X889103Y271315*
X888661Y271345*
X888218*
X887776Y271315*
X887337Y271253*
X886903Y271161*
X886477Y271039*
X886061Y270887*
X885656Y270707*
X885264Y270499*
X884889Y270264*
X884530Y270003*
X884191Y269718*
X883871Y269410*
X883575Y269081*
X883302Y268732*
X883054Y268364*
X882833Y267980*
X882638Y267582*
X882472Y267171*
X882335Y266750*
X882228Y266320*
X882151Y265883*
X882105Y265442*
X882089Y264999*
X704999Y269999D02*
D01*
X704902Y272790*
X704610Y275566*
X704125Y278316*
X703450Y281025*
X702587Y283680*
X701541Y286269*
X700317Y288778*
X698921Y291196*
X697360Y293511*
X695641Y295711*
X693773Y297786*
X691765Y299725*
X689626Y301520*
X687367Y303161*
X684999Y304640*
X682534Y305951*
X679984Y307087*
X677360Y308042*
X674676Y308811*
X671945Y309392*
X669181Y309780*
X666395Y309975*
X663603*
X660818Y309780*
X658054Y309392*
X655323Y308811*
X652639Y308042*
X650015Y307087*
X647465Y305951*
X644999Y304640*
X642632Y303161*
X640373Y301520*
X638234Y299725*
X636226Y297786*
X634358Y295711*
X632639Y293511*
X631077Y291196*
X629682Y288778*
X628457Y286269*
X627412Y283680*
X626549Y281025*
X625874Y278316*
X625389Y275566*
X625097Y272790*
X624999Y269999*
X625097Y267209*
X625389Y264433*
X625874Y261683*
X626549Y258974*
X627412Y256319*
X628457Y253730*
X629682Y251220*
X631077Y248803*
X632639Y246488*
X634358Y244288*
X636226Y242213*
X638234Y240274*
X640373Y238479*
X642632Y236838*
X644999Y235358*
X647465Y234048*
X650015Y232912*
X652639Y231957*
X655323Y231188*
X658054Y230607*
X660818Y230218*
X663603Y230024*
X666395*
X669181Y230218*
X671945Y230607*
X674676Y231188*
X677360Y231957*
X679984Y232912*
X682534Y234048*
X684999Y235358*
X687367Y236838*
X689626Y238479*
X691765Y240274*
X693773Y242213*
X695641Y244288*
X697360Y246488*
X698921Y248803*
X700317Y251220*
X701541Y253730*
X702587Y256319*
X703450Y258974*
X704125Y261683*
X704610Y264433*
X704902Y267209*
X704999Y269999*
X309999D02*
D01*
X309902Y272790*
X309610Y275566*
X309125Y278316*
X308450Y281025*
X307587Y283680*
X306541Y286269*
X305317Y288778*
X303921Y291196*
X302360Y293511*
X300641Y295711*
X298773Y297786*
X296765Y299725*
X294626Y301520*
X292367Y303161*
X289999Y304640*
X287534Y305951*
X284984Y307087*
X282360Y308042*
X279676Y308811*
X276945Y309392*
X274181Y309780*
X271395Y309975*
X268603*
X265818Y309780*
X263053Y309392*
X260323Y308811*
X257639Y308042*
X255015Y307087*
X252465Y305951*
X249999Y304640*
X247632Y303161*
X245373Y301520*
X243234Y299725*
X241226Y297786*
X239358Y295711*
X237639Y293511*
X236078Y291196*
X234682Y288778*
X233458Y286269*
X232412Y283680*
X231549Y281025*
X230874Y278316*
X230389Y275566*
X230097Y272790*
X229999Y269999*
X230097Y267209*
X230389Y264433*
X230874Y261683*
X231549Y258974*
X232412Y256319*
X233458Y253730*
X234682Y251220*
X236078Y248803*
X237639Y246488*
X239358Y244288*
X241226Y242213*
X243234Y240274*
X245373Y238479*
X247632Y236838*
X249999Y235358*
X252465Y234048*
X255015Y232912*
X257639Y231957*
X260323Y231188*
X263053Y230607*
X265818Y230218*
X268603Y230024*
X271395*
X274181Y230218*
X276945Y230607*
X279676Y231188*
X282360Y231957*
X284984Y232912*
X287534Y234048*
X289999Y235358*
X292367Y236838*
X294626Y238479*
X296765Y240274*
X298773Y242213*
X300641Y244288*
X302360Y246488*
X303921Y248803*
X305317Y251220*
X306541Y253730*
X307587Y256319*
X308450Y258974*
X309125Y261683*
X309610Y264433*
X309902Y267209*
X309999Y269999*
X116349Y264999D02*
D01*
X116334Y265442*
X116288Y265883*
X116211Y266320*
X116103Y266750*
X115967Y267171*
X115800Y267582*
X115606Y267980*
X115385Y268364*
X115137Y268732*
X114864Y269081*
X114567Y269410*
X114248Y269718*
X113909Y270003*
X113550Y270264*
X113174Y270499*
X112783Y270707*
X112378Y270887*
X111962Y271039*
X111535Y271161*
X111102Y271253*
X110663Y271315*
X110221Y271345*
X109778*
X109336Y271315*
X108897Y271253*
X108463Y271161*
X108037Y271039*
X107621Y270887*
X107216Y270707*
X106824Y270499*
X106449Y270264*
X106090Y270003*
X105750Y269718*
X105432Y269410*
X105135Y269081*
X104862Y268732*
X104614Y268364*
X104393Y267980*
X104198Y267582*
X104032Y267171*
X103895Y266750*
X103788Y266320*
X103711Y265883*
X103665Y265442*
X103649Y264999*
X505569D02*
D01*
X505554Y265442*
X505508Y265883*
X505431Y266320*
X505323Y266750*
X505186Y267171*
X505020Y267582*
X504826Y267980*
X504605Y268364*
X504357Y268732*
X504084Y269081*
X503787Y269410*
X503468Y269718*
X503129Y270003*
X502770Y270264*
X502394Y270499*
X502003Y270707*
X501598Y270887*
X501182Y271039*
X500756Y271161*
X500322Y271253*
X499883Y271315*
X499441Y271345*
X498998*
X498556Y271315*
X498117Y271253*
X497683Y271161*
X497257Y271039*
X496841Y270887*
X496436Y270707*
X496044Y270499*
X495669Y270264*
X495310Y270003*
X494970Y269718*
X494652Y269410*
X494355Y269081*
X494082Y268732*
X493834Y268364*
X493613Y267980*
X493418Y267582*
X493252Y267171*
X493115Y266750*
X493008Y266320*
X492931Y265883*
X492885Y265442*
X492869Y264999*
X1099999Y269999D02*
D01*
X1099902Y272790*
X1099610Y275566*
X1099125Y278316*
X1098450Y281025*
X1097587Y283680*
X1096541Y286269*
X1095317Y288778*
X1093921Y291196*
X1092360Y293511*
X1090641Y295711*
X1088773Y297786*
X1086765Y299725*
X1084626Y301520*
X1082367Y303161*
X1079999Y304640*
X1077534Y305951*
X1074984Y307087*
X1072360Y308042*
X1069676Y308811*
X1066945Y309392*
X1064181Y309780*
X1061395Y309975*
X1058603*
X1055818Y309780*
X1053054Y309392*
X1050323Y308811*
X1047639Y308042*
X1045015Y307087*
X1042465Y305951*
X1039999Y304640*
X1037632Y303161*
X1035373Y301520*
X1033234Y299725*
X1031226Y297786*
X1029358Y295711*
X1027639Y293511*
X1026077Y291196*
X1024681Y288778*
X1023457Y286269*
X1022412Y283680*
X1021549Y281025*
X1020874Y278316*
X1020389Y275566*
X1020097Y272790*
X1019999Y269999*
X1020097Y267209*
X1020389Y264433*
X1020874Y261683*
X1021549Y258974*
X1022412Y256319*
X1023457Y253730*
X1024681Y251220*
X1026077Y248803*
X1027639Y246488*
X1029358Y244288*
X1031226Y242213*
X1033234Y240274*
X1035373Y238479*
X1037632Y236838*
X1039999Y235358*
X1042465Y234048*
X1045015Y232912*
X1047639Y231957*
X1050323Y231188*
X1053054Y230607*
X1055818Y230218*
X1058603Y230024*
X1061395*
X1064181Y230218*
X1066945Y230607*
X1069676Y231188*
X1072360Y231957*
X1074984Y232912*
X1077534Y234048*
X1079999Y235358*
X1082367Y236838*
X1084626Y238479*
X1086765Y240274*
X1088773Y242213*
X1090641Y244288*
X1092360Y246488*
X1093921Y248803*
X1095317Y251220*
X1096541Y253730*
X1097587Y256319*
X1098450Y258974*
X1099125Y261683*
X1099610Y264433*
X1099902Y267209*
X1099999Y269999*
X702999Y33499D02*
X796999D01*
X702999Y86499D02*
X796999D01*
X702999Y33499D02*
Y53649D01*
Y66349D02*
Y86499D01*
X796999Y33499D02*
Y86499D01*
X498799Y109799D02*
Y135199D01*
X244799Y109799D02*
X498799D01*
X244799D02*
Y135199D01*
X263849*
X498799*
X894789Y264999D02*
X914939D01*
X861939D02*
X882089D01*
X861939Y524999D02*
X914939D01*
Y264999D02*
Y524999D01*
X861939Y264999D02*
Y524999D01*
X730399Y264919D02*
Y275079D01*
X725319Y269999D02*
X735479D01*
X335399Y264919D02*
Y275079D01*
X330319Y269999D02*
X340479D01*
X845499Y97999D02*
X870499D01*
X845499Y173999D02*
X870499D01*
X845499Y97999D02*
Y173999D01*
X870499Y97999D02*
Y173999D01*
X596499Y581999D02*
X621499D01*
X596499Y657999D02*
X621499D01*
X596499Y581999D02*
Y657999D01*
X621499Y581999D02*
Y657999D01*
X633499Y581999D02*
X658499D01*
X633499Y657999D02*
X658499D01*
X633499Y581999D02*
Y657999D01*
X658499Y581999D02*
Y657999D01*
X1084799Y77299D02*
Y102699D01*
X1160999*
Y77299D02*
Y102699D01*
X1084799Y77299D02*
X1160999D01*
X836399Y652299D02*
Y677699D01*
X734799Y652299D02*
X836399D01*
X734799Y677699D02*
X836399D01*
X734799Y652299D02*
Y677699D01*
X21199Y135199D02*
X224399D01*
X21199Y109799D02*
Y135199D01*
Y109799D02*
X224399D01*
Y135199*
X324299Y525299D02*
X349699D01*
Y398299D02*
Y525299D01*
X324299Y398299D02*
Y525299D01*
Y398299D02*
X349699D01*
X929999Y180479D02*
Y190639D01*
Y109359D02*
Y119519D01*
X940159D02*
Y180479D01*
X919839D02*
X940159D01*
X919839Y119519D02*
Y180479D01*
Y119519D02*
X940159D01*
X984999Y180479D02*
Y190639D01*
Y109359D02*
Y119519D01*
X995159D02*
Y180479D01*
X974839D02*
X995159D01*
X974839Y119519D02*
Y180479D01*
Y119519D02*
X995159D01*
X1109809Y582499D02*
X1112099D01*
X1162899D02*
X1165189D01*
X1112099D02*
Y590119D01*
X1162899*
Y574879D02*
Y590119D01*
X1112099Y574879D02*
X1162899D01*
X1112099D02*
Y582499D01*
X958899Y652299D02*
Y677699D01*
X857299Y652299D02*
X958899D01*
X857299Y677699D02*
X958899D01*
X857299Y652299D02*
Y677699D01*
X1102299Y524999D02*
X1127699D01*
Y397999D02*
Y524999D01*
X1102299Y397999D02*
Y524999D01*
Y397999D02*
X1127699D01*
X977559Y322609D02*
Y522609D01*
X972559Y322609D02*
X1022559D01*
Y331169*
X972559Y322609D02*
Y522609D01*
X1022559*
Y514049D02*
Y522609D01*
X814999Y237309D02*
Y239599D01*
Y290399D02*
Y292689D01*
X807379Y239599D02*
X814999D01*
X807379D02*
Y290399D01*
X822619*
Y239599D02*
Y290399D01*
X814999Y239599D02*
X822619D01*
X728299Y524299D02*
X753699D01*
Y397299D02*
Y524299D01*
X728299Y397299D02*
Y524299D01*
Y397299D02*
X753699D01*
X27999Y305399D02*
Y307689D01*
Y252309D02*
Y254599D01*
Y305399D02*
X35619D01*
Y254599D02*
Y305399D01*
X20379Y254599D02*
X35619D01*
X20379D02*
Y305399D01*
X27999*
X749999Y200399D02*
Y202689D01*
Y147309D02*
Y149599D01*
Y200399D02*
X757619D01*
Y149599D02*
Y200399D01*
X742379Y149599D02*
X757619D01*
X742379D02*
Y200399D01*
X749999*
X784999D02*
Y202689D01*
Y147309D02*
Y149599D01*
Y200399D02*
X792619D01*
Y149599D02*
Y200399D01*
X777379Y149599D02*
X792619D01*
X777379D02*
Y200399D01*
X784999*
X310499Y544999D02*
Y569999D01*
X234499Y544999D02*
Y569999D01*
Y544999D02*
X310499D01*
X234499Y569999D02*
X310499D01*
X147999Y547499D02*
Y572499D01*
X71999Y547499D02*
Y572499D01*
Y547499D02*
X147999D01*
X71999Y572499D02*
X147999D01*
X199799Y625199D02*
X402999D01*
X199799Y599799D02*
Y625199D01*
Y599799D02*
X402999D01*
Y625199*
X20299D02*
X172699D01*
X20299Y599799D02*
X172699D01*
Y625199*
X20299Y599799D02*
Y625199D01*
X102499Y156999D02*
X127499D01*
X102499Y232999D02*
X127499D01*
X102499Y156999D02*
Y232999D01*
X127499Y156999D02*
Y232999D01*
X173999Y237479D02*
Y247639D01*
Y166359D02*
Y176519D01*
X184159D02*
Y237479D01*
X163839D02*
X184159D01*
X163839Y176519D02*
Y237479D01*
Y176519D02*
X184159D01*
X209999Y240479D02*
Y250639D01*
Y169359D02*
Y179519D01*
X220159D02*
Y240479D01*
X199839D02*
X220159D01*
X199839Y179519D02*
Y240479D01*
Y179519D02*
X220159D01*
X414999Y265399D02*
Y267689D01*
Y212309D02*
Y214599D01*
Y265399D02*
X422619D01*
Y214599D02*
Y265399D01*
X407379Y214599D02*
X422619D01*
X407379D02*
Y265399D01*
X414999*
X477499Y151819D02*
X502499D01*
X477499Y227819D02*
X502499D01*
X477499Y151819D02*
Y227819D01*
X502499Y151819D02*
Y227819D01*
X116349Y264999D02*
X136499D01*
X83499D02*
X103649D01*
X83499Y524999D02*
X136499D01*
Y264999D02*
Y524999D01*
X83499Y264999D02*
Y524999D01*
X199119Y322609D02*
Y522609D01*
X194119Y322609D02*
X244119D01*
Y331169*
X194119Y322609D02*
Y522609D01*
X244119*
Y514049D02*
Y522609D01*
X505569Y264999D02*
X525719D01*
X472719D02*
X492869D01*
X472719Y524999D02*
X525719D01*
Y264999D02*
Y524999D01*
X472719Y264999D02*
Y524999D01*
X588339Y322609D02*
Y522609D01*
X583339Y322609D02*
X633339D01*
Y331169*
X583339Y322609D02*
Y522609D01*
X633339*
Y514049D02*
Y522609D01*
X549999Y200479D02*
Y210639D01*
Y129359D02*
Y139519D01*
X560159D02*
Y200479D01*
X539839D02*
X560159D01*
X539839Y139519D02*
Y200479D01*
Y139519D02*
X560159D01*
X589999Y200479D02*
Y210639D01*
Y129359D02*
Y139519D01*
X600159D02*
Y200479D01*
X579839D02*
X600159D01*
X579839Y139519D02*
Y200479D01*
Y139519D02*
X600159D01*
X714999Y205399D02*
Y207689D01*
Y152309D02*
Y154599D01*
Y205399D02*
X722619D01*
Y154599D02*
Y205399D01*
X707379Y154599D02*
X722619D01*
X707379D02*
Y205399D01*
X714999*
X1125399Y264919D02*
Y275079D01*
X1120319Y269999D02*
X1130479D01*
X937499Y536999D02*
X962499D01*
X937499Y612999D02*
X962499D01*
X937499Y536999D02*
Y612999D01*
X962499Y536999D02*
Y612999D01*
X1027499Y536999D02*
X1052499D01*
X1027499Y612999D02*
X1052499D01*
X1027499Y536999D02*
Y612999D01*
X1052499Y536999D02*
Y612999D01*
X1051309Y641999D02*
X1053599D01*
X1104399D02*
X1106689D01*
X1053599D02*
Y649619D01*
X1104399*
Y634379D02*
Y649619D01*
X1053599Y634379D02*
X1104399D01*
X1053599D02*
Y641999D01*
X1051309Y666999D02*
X1053599D01*
X1104399D02*
X1106689D01*
X1053599D02*
Y674619D01*
X1104399*
Y659379D02*
Y674619D01*
X1053599Y659379D02*
X1104399D01*
X1053599D02*
Y666999D01*
X1109809Y557499D02*
X1112099D01*
X1162899D02*
X1165189D01*
X1112099D02*
Y565119D01*
X1162899*
Y549879D02*
Y565119D01*
X1112099Y549879D02*
X1162899D01*
X1112099D02*
Y557499D01*
G54D34*
X712849Y21899D02*
D01*
X712846Y21987*
X712837Y22073*
X712822Y22159*
X712801Y22244*
X712774Y22327*
X712741Y22408*
X712703Y22486*
X712659Y22562*
X712611Y22634*
X712557Y22703*
X712498Y22768*
X712436Y22828*
X712369Y22884*
X712298Y22936*
X712224Y22982*
X712147Y23023*
X712068Y23058*
X711986Y23088*
X711902Y23112*
X711816Y23130*
X711730Y23142*
X711643Y23149*
X711556*
X711469Y23142*
X711382Y23130*
X711297Y23112*
X711213Y23088*
X711131Y23058*
X711051Y23023*
X710974Y22982*
X710900Y22936*
X710830Y22884*
X710763Y22828*
X710700Y22768*
X710642Y22703*
X710588Y22634*
X710539Y22562*
X710496Y22486*
X710458Y22408*
X710425Y22327*
X710398Y22244*
X710377Y22159*
X710362Y22073*
X710352Y21987*
X710349Y21899*
X710352Y21812*
X710362Y21725*
X710377Y21640*
X710398Y21555*
X710425Y21472*
X710458Y21391*
X710496Y21313*
X710539Y21237*
X710588Y21165*
X710642Y21096*
X710700Y21031*
X710763Y20971*
X710830Y20914*
X710900Y20863*
X710974Y20817*
X711051Y20776*
X711131Y20740*
X711213Y20711*
X711297Y20687*
X711382Y20668*
X711469Y20656*
X711556Y20650*
X711643*
X711730Y20656*
X711816Y20668*
X711902Y20687*
X711986Y20711*
X712068Y20740*
X712147Y20776*
X712224Y20817*
X712298Y20863*
X712369Y20914*
X712436Y20971*
X712498Y21031*
X712557Y21096*
X712611Y21165*
X712659Y21237*
X712703Y21313*
X712741Y21391*
X712774Y21472*
X712801Y21555*
X712822Y21640*
X712837Y21725*
X712846Y21812*
X712849Y21899*
G54D35*
X715999Y43499D02*
D01*
X715992Y43709*
X715970Y43917*
X715934Y44123*
X715883Y44326*
X715818Y44525*
X715740Y44720*
X715648Y44908*
X715543Y45089*
X715426Y45263*
X715298Y45428*
X715157Y45583*
X715007Y45729*
X714846Y45864*
X714677Y45986*
X714499Y46097*
X714315Y46196*
X714123Y46281*
X713926Y46352*
X713725Y46410*
X713520Y46454*
X713313Y46483*
X713104Y46498*
X712895*
X712686Y46483*
X712478Y46454*
X712274Y46410*
X712072Y46352*
X711876Y46281*
X711684Y46196*
X711499Y46097*
X711322Y45986*
X711153Y45864*
X710992Y45729*
X710841Y45583*
X710701Y45428*
X710572Y45263*
X710455Y45089*
X710351Y44908*
X710259Y44720*
X710180Y44525*
X710116Y44326*
X710065Y44123*
X710029Y43917*
X710007Y43709*
X709999Y43499*
X710007Y43290*
X710029Y43082*
X710065Y42876*
X710116Y42673*
X710180Y42473*
X710259Y42279*
X710351Y42091*
X710455Y41910*
X710572Y41736*
X710701Y41571*
X710841Y41415*
X710992Y41270*
X711153Y41135*
X711322Y41012*
X711499Y40901*
X711684Y40803*
X711876Y40718*
X712072Y40646*
X712274Y40588*
X712478Y40545*
X712686Y40516*
X712895Y40501*
X713104*
X713313Y40516*
X713520Y40545*
X713725Y40588*
X713926Y40646*
X714123Y40718*
X714315Y40803*
X714499Y40901*
X714677Y41012*
X714846Y41135*
X715007Y41270*
X715157Y41415*
X715298Y41571*
X715426Y41736*
X715543Y41910*
X715648Y42091*
X715740Y42279*
X715818Y42473*
X715883Y42673*
X715934Y42876*
X715970Y43082*
X715992Y43290*
X715999Y43499*
G54D36*
X1095109Y331409D02*
Y336409D01*
Y333909*
X1080119*
X1082609Y331409*
X1095109Y502009D02*
Y507009D01*
Y504509*
X1080119*
X1082609Y502009*
X1080119Y524499D02*
Y514499D01*
X1087609*
X1085109Y519499*
Y521999*
X1087609Y524499*
X1092609*
X1095109Y521999*
Y516999*
X1092609Y514499*
X316669Y331409D02*
Y336409D01*
Y333909*
X301679*
X304179Y331409*
X316669Y502009D02*
Y507009D01*
Y504509*
X301679*
X304179Y502009*
X301679Y524499D02*
Y514499D01*
X309179*
X306679Y519499*
Y521999*
X309179Y524499*
X314169*
X316669Y521999*
Y516999*
X314169Y514499*
X705889Y331409D02*
Y336409D01*
Y333909*
X690899*
X693399Y331409*
X705889Y502009D02*
Y507009D01*
Y504509*
X690899*
X693399Y502009*
X690899Y524499D02*
Y514499D01*
X698389*
X695899Y519499*
Y521999*
X698389Y524499*
X703389*
X705889Y521999*
Y516999*
X703389Y514499*
G54D37*
X206499Y629999D02*
X213829D01*
X217499Y633669*
X213829Y637329*
X206499*
X217499Y640999D02*
Y644659D01*
Y642829*
X210169*
Y640999*
X217499Y650159D02*
X210169D01*
Y655659*
X211999Y657489*
X217499*
X248339Y639829D02*
X246499Y637999D01*
Y634329*
X248339Y632499*
X255669*
X257499Y634329*
Y637999*
X255669Y639829*
X251999*
Y636169*
X257499Y643499D02*
X246499D01*
X257499Y650829*
X246499*
Y654489D02*
X257499D01*
Y659989*
X255669Y661819*
X248339*
X246499Y659989*
Y654489*
X281499Y637329D02*
Y629999D01*
X286999*
X285169Y633669*
Y635499*
X286999Y637329*
X290669*
X292499Y635499*
Y631829*
X290669Y629999*
X285169Y640999D02*
X292499Y644659D01*
X285169Y648329*
X308339Y632499D02*
X306499Y634329D01*
Y637999*
X308339Y639829*
X310169*
X311999Y637999*
Y636169*
Y637999*
X313829Y639829*
X315669*
X317500Y637999*
Y634329*
X315669Y632499*
X317500Y643499D02*
X315669D01*
Y645329*
X317500*
Y643499*
X308339Y652659D02*
X306499Y654489D01*
Y658159*
X308339Y659989*
X310169*
X311999Y658159*
Y656329*
Y658159*
X313829Y659989*
X315669*
X317500Y658159*
Y654489*
X315669Y652659*
X310169Y663659D02*
X317500Y667319D01*
X310169Y670989*
X344999Y629999D02*
X333999D01*
Y635499*
X335839Y637329*
X339499*
X341329Y635499*
Y629999*
Y633669D02*
X344999Y637329D01*
X335839Y648329D02*
X333999Y646489D01*
Y642829*
X335839Y640999*
X337669*
X339499Y642829*
Y646489*
X341329Y648329*
X343169*
X344999Y646489*
Y642829*
X343169Y640999*
X333999Y651989D02*
Y659319D01*
Y655659*
X344999*
M02*